<?xml version="1.0" standalone="no"?><!DOCTYPE svg PUBLIC "-//W3C//DTD SVG 1.1//EN" "http://www.w3.org/Graphics/SVG/1.1/DTD/svg11.dtd"><svg t="1730563161652" class="icon" viewBox="0 0 1024 1024" version="1.1" xmlns="http://www.w3.org/2000/svg" p-id="6111" xmlns:xlink="http://www.w3.org/1999/xlink" width="32" height="32"><path d="M511.990798 1.507151c142.093502 0 269.538801 57.048852 361.826776 150.66811 92.287975 92.155051 149.418626 219.418347 149.418626 361.309395 0 140.428887-57.130651 267.690137-149.418626 359.847233-92.287975 93.619258-219.733274 150.66811-361.826776 150.66811-140.629295 0-268.074594-57.048852-361.826776-150.66811C57.876047 781.174794 0.745396 653.911499 0.745396 513.484657c0-141.891049 57.130651-269.154344 149.418626-361.309395C243.916204 58.556003 371.361502 1.507151 511.990798 1.507151L511.990798 1.507151zM832.801377 193.134198c-82.034437-81.915828-194.829488-131.651826-320.81058-131.651826-124.51484 0-237.311936 49.733953-319.344328 131.651826s-133.304171 194.55137-133.304171 320.350459c0 124.336927 51.271779 236.972469 133.304171 318.888297s194.829488 131.651826 319.344328 131.651826c125.981092 0 238.776142-49.733953 320.81058-131.651826 80.568185-81.915828 131.839964-194.55137 131.839964-318.888297C964.641341 387.685568 913.369563 275.050026 832.801377 193.134198z" fill="#254DA7" p-id="6112"></path><path d="M352.318634 219.463336c1.464207 4.388531-136.23463 98.007789 16.114455 390.564902 150.882833 291.094952 275.397673 223.806877 275.397673 223.806877l-74.709313-168.220187c0 0-20.509121 16.089915-46.877113-19.016284-27.8322-36.570406-89.357516-153.592434-98.146847-198.939901-10.253538-43.88326-10.253538-58.511014 7.325124-58.511014C353.782841 225.314028 350.854427 216.539012 352.318634 219.463336L352.318634 219.463336zM589.630569 658.300029l-2.930459-5.850692c0 0 36.621531-16.089915 55.666444-20.478446 17.578662-5.850692 21.973327 8.777061 21.973327 8.777061s48.34132 100.932112 60.06111 125.799089c11.71979 24.866976-7.325124 35.106199-7.325124 35.106199l-48.34132 23.404814L589.630569 658.300029 589.630569 658.300029zM375.756168 212.150482l-2.930459-4.388531c0 0 36.621531-16.089915 55.666444-21.942653 17.578662-4.388531 21.973327 8.777061 21.973327 8.777061s48.34132 102.396319 60.06111 127.263295c11.71979 24.866976-7.325124 33.644037-7.325124 33.644037l-48.34132 23.404814L375.756168 212.150482z" fill="#254DA7" p-id="6113"></path></svg>